<svg viewBox="0 0 48 48" xmlns="http://www.w3.org/2000/svg"><path d="M37 5h-8V2a2 2 0 0 1 2-2h4a2 2 0 0 1 2 2Z" fill="#d0d7df" class="fill-d0d7df"></path><path d="M29 8h8v32h-8z" fill="#8a2cd1" class="fill-fed049"></path><path d="M29 5h8v3h-8z" fill="#3ffab2" class="fill-49aaee"></path><path d="m33 48-4-8h8l-4 8z" fill="#fde0ba" class="fill-fde0ba"></path><path d="M34.724 44.551a2.973 2.973 0 0 0-3.448 0L33 48Z" fill="#4c6681" class="fill-4c6681"></path><path d="M35 8h2v32h-2z" fill="#5F2787" class="fill-f6b445"></path><path d="M35 5h2v3h-2z" fill="#3bbd8d" class="fill-3398d6"></path><path d="M14 0a2.006 2.006 0 0 0-2 2v44a2.006 2.006 0 0 0 2 2h11V0Z" fill="#8a2cd1" class="fill-fed049"></path><path d="M17 23h8v2h-8zM20 15h5v2h-5zM17 7h8v2h-8zM20 31h5v2h-5zM17 39h8v2h-8z" fill="#5F2787" class="fill-f6b445"></path></svg>