<svg width="1278" height="466" viewBox="0 0 1278 466" fill="none" xmlns="http://www.w3.org/2000/svg">
<path d="M1276.5 259L1275.5 320L1105.5 316L1107 224.5L1175 225.5V257.5L1276.5 259Z" fill="#F9FAFB"/>
<path d="M1178 119L1177.5 141L1109 139L1110.5 56L1277.5 59.5L1276.5 120L1178 119Z" fill="#F9FAFB"/>
<path d="M1094 152.001C1070.86 71.408 1036.32 53.3709 947 56.0006V126.5C1082.07 107.855 1038 239.5 1012.5 245V316C1060.16 300.096 1085.71 273.06 1094 212L1266.5 216L1267.5 156L1094 152.001Z" fill="#F9FAFB"/>
<path d="M930.5 245H995.5V316H874V56.0006H930.5V245Z" fill="#F9FAFB"/>
<path d="M485.003 122C425.002 232.5 539.002 318 570.503 213H626.502C604.919 407.209 358.516 345.104 416.002 122H485.003Z" fill="#F9FAFB"/>
<path d="M524 107.5C501.04 107.5 395.507 109.409 390.672 109.497L363 164L333.5 109.5L363 40.5L426 39.913L524 39C568 39 612.208 76.2317 622.5 147L566.5 147.5C555.429 117.356 547.5 107.5 524 107.5Z" fill="#F9FAFB"/>
<path d="M270 49.5H218.5L349.5 284.5L347 194.5L270 49.5Z" fill="#F9FAFB"/>
<path d="M337.5 324L294 247.5V324H337.5Z" fill="#F9FAFB"/>
<path d="M263.5 176C171.826 273.852 127.369 338.072 58 466C86.3102 381.985 102.886 335.6 136 256.5L0.5 245C91.7873 110.563 142.342 57.1691 234 0.5C194.205 57.0623 173.693 89.612 140 149L263.5 176Z" fill="#F9FAFB"/>
<path d="M747.496 103.501V49.5007C601 56.5 599 314 747.496 322.501V269.501C658.499 262.001 658.999 109.501 747.496 103.501Z" fill="#F9FAFB"/>
<path d="M747.5 103.5V49.5C893 55 896.5 313 747.5 322.5V269.5C837.5 264.5 838.183 109.349 747.5 103.5Z" fill="#F9FAFB"/>
</svg>
