<svg id="Layer_1" version="1.1" viewBox="0 0 128 128" xml:space="preserve" xmlns="http://www.w3.org/2000/svg" enable-background="new 0 0 128 128"><path d="M86.2 104H41.8C32 104 24 96 24 86.2V41.8C24 32 32 24 41.8 24h44.4C96 24 104 32 104 41.8v44.4c0 9.8-8 17.8-17.8 17.8z" fill="#8a2cd1" class="fill-ff697b"></path><path d="M86.2 104H41.8C32 104 24 96 24 86.2V41.8C24 32 32 24 41.8 24h44.4C96 24 104 32 104 41.8v44.4c0 9.8-8 17.8-17.8 17.8z" fill="#8a2cd1" class="fill-ff697b"></path><path d="M24 41.8v14.7c14.5-11.1 41.2-24.9 79.5-19-2-7.8-8.9-13.5-17.3-13.5H41.8C32 24 24 32 24 41.8z" fill="#ffffff" class="fill-ffffff"></path><path d="M53.5 49v30l26-15z" fill="#ffffff" class="fill-ffffff"></path><path d="M86.2 104H41.8C32 104 24 96 24 86.2V41.8C24 32 32 24 41.8 24h44.4C96 24 104 32 104 41.8v44.4c0 9.8-8 17.8-17.8 17.8z" fill="none" stroke="#444b54" stroke-width="6" stroke-linecap="round" stroke-linejoin="round" stroke-miterlimit="10" class="stroke-444b54"></path></svg>