<svg viewBox="0 0 24 24" xmlns="http://www.w3.org/2000/svg"><g data-name="Pie Chart"><path d="M9.27 4.33a8.57 8.57 0 0 0-7 10.42 8.32 8.32 0 0 0 3.37 5 8.59 8.59 0 0 0 7.92 1 1.26 1.26 0 0 0 .58-1.75l-3.58-6.2V5.47a1.14 1.14 0 0 0-1.29-1.14Z" fill="#8a2cd1" class="fill-96ccee"></path><path d="M14.62 13.53a.68.68 0 0 0-.57.33.67.67 0 0 0 0 .67l3.08 5.33a1.13 1.13 0 0 0 1.68.34A8.54 8.54 0 0 0 22 14.35a.74.74 0 0 0-.2-.57.76.76 0 0 0-.55-.24Z" fill="#bae5ff" class="fill-ffeabb"></path><path d="M13.06 2.67a.21.21 0 0 0-.21.21v7.67a.65.65 0 0 0 .66.66h6.89a.92.92 0 0 0 .7-.31.93.93 0 0 0 .24-.73 8.56 8.56 0 0 0-8.28-7.5Z" fill="#3ffab2" class="fill-f94060"></path><path d="M19.81 13.53a8.56 8.56 0 0 1-2.73 6.26l.18.29a.93.93 0 0 0 1.35.3 8.62 8.62 0 0 0 3.37-6 .74.74 0 0 0-.2-.57.76.76 0 0 0-.55-.24Z" fill="#80a9c4" class="fill-f7bf75"></path><path d="M10.56 5.14a.84.84 0 0 0-1-.85 9.31 9.31 0 0 0-1.26.24v5.7A9.63 9.63 0 0 0 9.63 15l2.44 4.22a1 1 0 0 1-.44 1.45 8.47 8.47 0 0 1-2.18.59 10.34 10.34 0 0 0 1.11.07 8.54 8.54 0 0 0 3.44-.72.85.85 0 0 0 .46-.52.81.81 0 0 0-.07-.68c-.74-1.3-2.23-3.89-3.12-5.42a5.17 5.17 0 0 1-.7-2.6Z" fill="#5f2787" class="fill-6f73d5"></path><path d="M13.06 2.67a.21.21 0 0 0-.21.21.37.37 0 0 0 0 .08 8.54 8.54 0 0 1 6.34 8.25h1.21a.92.92 0 0 0 .7-.31.93.93 0 0 0 .24-.73 8.56 8.56 0 0 0-8.28-7.5Z" fill="#3bbd8d" class="fill-d62657"></path></g></svg>