<svg viewBox="0 0 158.52 155.031" xml:space="preserve" xmlns="http://www.w3.org/2000/svg"><path d="M135.498 16.178C117.803 3.475 63.141 7.021 48.924 9.095c-19.184 2.799-26.211.893-36.797 17.533-10.422 16.381-1.04 41.586-2.179 60.354-1.074 17.687-.871 40.829 14.905 52.506 17.419 12.893 43.715 9.648 63.825 7.586 10.509-1.078 20.958-2.347 31.518-2.8 8.416-.36 17.433-1.325 22.83-8.609 7.134-9.63 6.517-24.767 6.586-36.129.06-9.851.296-19.635.555-29.479.409-15.507 6.75-38.503-14.669-53.879z" fill="#8A2CD1" class="fill-87c9ff"></path><circle cx="73.26" cy="83.516" fill="#ffffff" r="48" class="fill-ffffff"></circle><path d="M129.148 55.699c-6.966-14.077-19.614-25.885-34.943-30.341-4.994-1.452-10.285-2.674-15.527-2.571-8.823.173-16.184 2.371-24.319 5.611-13.516 5.384-24.796 20.207-28.179 34.094-1.41 5.787-1.145 11.145-.87 17.01.187 5.737.47 11.316 2.384 16.785 7.205 20.593 30.131 36.005 51.563 36.071 13.625.042 30.763-5.387 39.187-16.812 4.757-5.833 9.22-11.953 11.887-19.05 2.325-6.188 2.914-12.341 3.146-18.893-.158-7.29-1.005-15.291-4.329-21.904zm-9.391-7.845c2.466 3.071 3.461 6.233 4.95 9.789 2.61 5.337 4.05 11.267 4.638 17.17-4.312-.172-8.633.182-12.949.184-5.739.002-11.521-.197-17.298-.287a156.735 156.735 0 0 0-.757-13.727c-.352-3.535-.984-6.966-1.79-10.352a32.252 32.252 0 0 0 1.882-.615c5.467-2.009 9.819-5.705 14.618-8.774 2.434 1.993 4.736 4.159 6.706 6.612zm-28.023 55.173a37.57 37.57 0 0 0-7.893-.838c-6.096.012-12.019-.235-17.804 1.123-1.16-7.568-1.92-15.162-1.901-22.782 2.856-.01 5.714-.029 8.577-.055 7.295-.066 14.583-.226 21.878-.287-.033 4.215-.264 8.427-.865 12.602-.623 3.416-1.311 6.826-1.992 10.237zm3.478 5.772c5.561 1.772 10.8 4.519 15.257 8.112-6.593 5.201-14.521 8.709-22.765 10.156 3.712-3.949 5.557-9.405 6.763-14.863.249-1.128.498-2.264.745-3.405zm-4.83 1.156c-.915 4.905-2.157 10.502-5.666 14.27-1.185 1.273-4.065 3.224-5.258 3.166-4.608-.141-6.824-3.252-8.729-7.273-1.778-3.753-2.967-7.766-3.815-11.836 2.137-.364 4.269-.763 6.411-1.141 5.735-1.011 11.726-.785 17.506.482-.15.777-.304 1.554-.449 2.332zM66.646 55.1c.151-1.012.262-2.057.367-3.114 4.31.958 8.792 1.322 13.444.929 4.008-.339 7.986-.571 11.889-1.285 1.499 7.577 2.001 15.424 2.191 23.042-3.647-.007-7.287.057-10.906.286-6.428.406-12.914.844-19.384.827.073-1.529.172-3.059.318-4.59.513-5.394 1.281-10.739 2.081-16.095zM77.18 28.209c.553-.404 1.144-.515 1.557-.755.317.007.634.024.95.038.52.347 1.247.701 1.525.935 3.775 3.175 6.672 8.864 8.505 13.354a68.61 68.61 0 0 1 1.613 5.384c-4.154.958-8.474 1.506-12.071 1.576-4.081-.014-7.973-.371-11.783-1.248.321-2.592.815-5.144 1.879-7.435 1.004-2.162 2.396-4.209 3.517-6.321 1.071-2.016 2.439-4.162 4.308-5.528zm32.497 10.444c-3.302 2.45-6.805 4.503-10.613 6.1-1.158.485-2.412.918-3.701 1.319a169.938 169.938 0 0 0-2.614-8.277c-.944-2.77-2.369-6.258-4.397-9.122 7.627 1.751 14.853 5.277 21.325 9.98zm-39.78-10.561c.229-.04.458-.061.687-.097-4.002 5.02-5.986 12.976-7.048 18.382a39.958 39.958 0 0 1-4.082-1.619c-4.075-1.899-7.862-4.229-11.493-6.838 6.488-4.957 14.114-8.474 21.936-9.828zM29.203 68.983c.598-5.463 2.607-10.857 5.253-15.661 2.547-4.606 5.974-8.822 9.977-12.463 5.63 4.357 11.736 7.852 18.283 9.966-1.469 8.215-2.676 16.517-3.118 24.853a94.864 94.864 0 0 1-5.908-.407c-8.162-.851-16.438-.133-24.645-.228-.077-2.045-.059-4.075.158-6.06zm.576 15.873c-.107-1.503-.245-3.023-.376-4.549 3.712.243 7.345-.092 11.084.005 6.325.163 12.634.217 18.947.22-.007.5-.029 1.001-.03 1.501-.01 7.521.548 15.327 2.053 22.737-.17.07-.34.132-.51.205-5.67 2.457-10.802 5.035-15.732 8.548-8.324-7.562-14.935-17.018-15.436-28.667zm19.299 31.964c.129-.103.242-.193.323-.251 1.303-1.017 2.7-1.903 3.982-2.952 2.687-1.818 5.677-4.23 8.992-4.646 1.541 6.238 3.609 12.8 7.497 17.879-4.324-.773-8.511-2.063-12.47-4.287-2.862-1.608-5.695-3.629-8.324-5.743zm64.987-3.059c-2.112-1.906-4.642-3.454-7.109-4.788-3.513-1.901-7.084-3.553-10.786-4.753 1.22-6.018 2.252-12.13 2.639-18.16.126-1.96.209-3.925.257-5.892a445.75 445.75 0 0 1 6.438.026c2.656.036 5.307.234 7.966.173 2.599-.06 5.141-.765 7.727-.786 2.671-.022 5.363.147 8.042.306-1.784 12.166-6.02 24.957-15.174 33.874z" fill="#000000" class="fill-000000"></path><path d="m157.771 78.006-.033-3.355c-.144-14.476-.438-28.918-1.01-43.384-.281-7.106-2.245-13.237-7.082-18.641-5.507-6.152-12.73-9.865-20.991-10.236-8.5-.382-17.028.33-25.515-.295-8.992-.662-17.797-.691-26.808-.478-9.014.213-18.018.798-27.035.513-8.181-.259-17.448-1.117-25.359 1.431C16.582 5.85 9.88 11.02 6.094 17.765c-4.164 7.42-3.428 16.154-3.365 24.369.128 16.912.932 33.804 1.316 50.71.266 11.738-.111 23.516.598 35.238.441 7.292 3.577 13.991 8.994 18.93 6.237 5.686 13.484 6.92 21.63 6.95 8.768.032 17.529-.324 26.296-.397 8.658-.073 17.275.452 25.927.613 8.846.165 17.696.19 26.544.186 6.695-.003 13.543.201 20.204-.605 8.079-.977 15.874-4.683 19.682-12.217 3.459-6.843 2.742-15.077 3.112-22.521.678-13.672.815-27.33.739-41.015zm-4.94 18.2c-.125 8.196-.121 16.452-.819 24.623-.4 5.383-.859 11.303-2.688 16.436-2.643 7.419-9.971 10.773-17.329 11.67-7.971.972-16.229.391-24.241.308-8.738-.09-17.469-.204-26.205-.446-6.701-.185-13.311.422-20.028.095-8.786-.427-17.511-.524-26.303-.378-7.723.128-14.673-1.042-20.137-7.058-4.077-4.489-5.58-9.823-5.94-15.716-.463-7.593-.462-15.209-.609-22.813-.19-9.854-.587-19.7-.982-29.55-.513-12.818-.123-25.606.482-38.416.201-4.255.074-8.573 1.734-12.577 1.376-3.319 3.642-6.238 6.342-8.589 6.454-5.62 13.726-6.333 21.903-6.954 8.501-.645 16.96-.611 25.477-.637 8.195-.024 16.318-.574 24.508.023 8.872.646 17.71 1.35 26.61 1.271 7.268-.064 16.031-1.06 22.857 1.854 6.933 2.958 12.684 9.094 14.14 16.631 1.255 6.496.6 13.672.793 20.263.311 10.597.344 21.203.477 31.804.018 5.976.05 12.122-.042 18.156z" fill="#000000" class="fill-000000"></path></svg>